<svg width="38" height="38" viewBox="0 0 38 38" fill="none" xmlns="http://www.w3.org/2000/svg">
<path d="M19 22.7389C29.3245 22.7389 37.6948 26.6449 37.6948 31.4632V37.6947H0.305298V31.4632C0.305298 26.6449 8.67555 22.7389 19 22.7389ZM35.2021 31.4632C35.2021 28.0233 27.9486 25.2316 19 25.2316C10.0515 25.2316 2.79793 28.0233 2.79793 31.4632V35.2021H35.2021V31.4632ZM19 0.305267C21.3138 0.305267 23.5329 1.22442 25.169 2.86053C26.8051 4.49664 27.7242 6.71567 27.7242 9.02947C27.7242 11.3433 26.8051 13.5623 25.169 15.1984C23.5329 16.8345 21.3138 17.7537 19 17.7537C16.6862 17.7537 14.4672 16.8345 12.8311 15.1984C11.195 13.5623 10.2758 11.3433 10.2758 9.02947C10.2758 6.71567 11.195 4.49664 12.8311 2.86053C14.4672 1.22442 16.6862 0.305267 19 0.305267ZM19 2.7979C17.3473 2.7979 15.7623 3.45444 14.5936 4.62308C13.425 5.79173 12.7685 7.37676 12.7685 9.02947C12.7685 10.6822 13.425 12.2672 14.5936 13.4359C15.7623 14.6045 17.3473 15.2611 19 15.2611C20.6528 15.2611 22.2378 14.6045 23.4064 13.4359C24.5751 12.2672 25.2316 10.6822 25.2316 9.02947C25.2316 7.37676 24.5751 5.79173 23.4064 4.62308C22.2378 3.45444 20.6528 2.7979 19 2.7979V2.7979Z" fill="#696969"/>
</svg>
